<!-- Generator: Adobe Illustrator 21.0.0, SVG Export Plug-In  -->
<svg version="1.1"
	 xmlns="http://www.w3.org/2000/svg" xmlns:xlink="http://www.w3.org/1999/xlink" xmlns:a="http://ns.adobe.com/AdobeSVGViewerExtensions/3.0/"
	 x="0px" y="0px" width="83.6px" height="84.6px" viewBox="0 0 83.6 84.6" style="enable-background:new 0 0 83.6 84.6;"
	 xml:space="preserve">
<style type="text/css">
	.st0{fill:#C4C4C4;}
	.st1{fill:none;stroke:#999999;stroke-miterlimit:10;}
</style>
<defs>
</defs>
<g>
	<path class="st0" d="M63,40.2H43.9V21.1c0-1.2-0.9-2.1-2.1-2.1c-1.2,0-2.1,0.9-2.1,2.1v19.1H20.6c-1.2,0-2.1,0.9-2.1,2.1
		c0,1.2,0.9,2.1,2.1,2.1h19.1v19.1c0,1.2,0.9,2.1,2.1,2.1c1.2,0,2.1-0.9,2.1-2.1V44.4H63c1.2,0,2.1-0.9,2.1-2.1
		C65.1,41.1,64.2,40.2,63,40.2z"/>
	<path class="st1" d="M73.1,84.1H10.5c-5.5,0-10-4.5-10-10V10.5c0-5.5,4.5-10,10-10h62.6c5.5,0,10,4.5,10,10v63.6
		C83.1,79.6,78.6,84.1,73.1,84.1z"/>
</g>
</svg>
