<!-- Generator: Adobe Illustrator 19.0.0, SVG Export Plug-In  -->
<svg version="1.1"
	 xmlns="http://www.w3.org/2000/svg" xmlns:xlink="http://www.w3.org/1999/xlink" xmlns:a="http://ns.adobe.com/AdobeSVGViewerExtensions/3.0/"
	 x="0px" y="0px" width="750px" height="295px" viewBox="0 0 750 295" style="enable-background:new 0 0 750 295;"
	 xml:space="preserve">
<style type="text/css">
	.st0{fill:#FFFFFF;}
	.st1{fill:#FA1717;}
	.st2{fill:#D60303;}
	.st3{fill:#B30000;}
	.st4{fill:#FA51B5;}
	.st5{fill:#ED0606;}
	.st6{fill:#D10505;}
	.st7{fill:#CA0000;}
	.st8{fill:#E00000;}
	.st9{fill:#D90505;}
	.st10{fill:#D10909;}
	.st11{fill:#D91212;}
	.st12{fill:#BF0202;}
</style>
<defs>
</defs>
<g>
	<rect class="st0" width="750" height="295"/>
	<polygon class="st1" points="750,224.6 603.1,198.5 597.4,197.5 597.1,197.5 750,14.6 	"/>
	<polygon class="st2" points="750,295 707.3,295 636.6,232.5 598.8,199 598.1,198.4 597.1,197.5 597.4,197.5 603.1,198.5 750,224.6 
			"/>
	<polygon class="st3" points="636.5,232.5 600.9,200.9 598.1,198.4 597.1,197.5 587,200.1 227.4,295 707,295 	"/>
	
		<rect x="-2.5" y="73.7" transform="matrix(0.9575 0.2883 -0.2883 0.9575 23.5871 -12.8376)" class="st4" width="115.7" height="0"/>
	
		<rect x="-31.3" y="198.2" transform="matrix(0.7192 -0.6949 0.6949 0.7192 -115.2245 111.3983)" class="st4" width="223" height="0"/>
	<polygon class="st5" points="172.6,109 269.3,0 367.7,0 307.5,74.7 	"/>
	<polygon class="st6" points="275.5,120.8 307.5,74.7 172.6,109 169.5,120.8 123.6,295 154,295 	"/>
	<polygon class="st7" points="172.6,109 110.8,36.9 79.1,0 269.3,0 	"/>
	<polygon class="st8" points="110.8,36.9 79.1,0 0,0 0,57 110.8,90.3 172.6,109 	"/>
	<polygon class="st9" points="169.5,120.8 172.6,109 160.4,120.8 0,275.7 0,295 123.6,295 	"/>
	<polygon class="st10" points="160.4,120.8 172.6,109 110.8,90.3 0,57 0,275.7 	"/>
	<polygon class="st11" points="597.1,197.5 587,193.2 375.6,103.6 307.5,74.7 367.7,0 750,0 750,14.6 	"/>
	<polygon class="st12" points="587,200.1 597.1,197.5 587,193.2 375.6,103.6 307.5,74.7 275.5,120.8 154,295 227.1,295 	"/>
</g>
</svg>