<!-- Generator: Adobe Illustrator 19.0.0, SVG Export Plug-In  -->
<svg version="1.1"
	 xmlns="http://www.w3.org/2000/svg" xmlns:xlink="http://www.w3.org/1999/xlink" xmlns:a="http://ns.adobe.com/AdobeSVGViewerExtensions/3.0/"
	 x="0px" y="0px" width="34px" height="34px" viewBox="0 0 34 34" style="enable-background:new 0 0 34 34;" xml:space="preserve">
<style type="text/css">
	.st0{fill:#12C7A2;}
</style>
<defs>
</defs>
<path class="st0" d="M17,0C7.6,0,0,7.6,0,17s7.6,17,17,17c9.4,0,17-7.6,17-17S26.4,0,17,0z M28.4,11.7l-13,12
	C15.2,23.9,15,24,14.8,24c-0.3,0-0.5-0.1-0.7-0.3c-0.1-0.1-0.1-0.2-0.2-0.3c-0.1,0-0.1,0-0.2-0.1l-8-6c-0.5-0.3-0.5-1-0.2-1.4
	c0.3-0.4,1-0.5,1.4-0.2l7.9,5.9l12.3-11.4c0.4-0.4,1-0.4,1.4,0.1C28.9,10.7,28.8,11.4,28.4,11.7z"/>
</svg>